<?xml version="1.0" encoding="iso-8859-1"?>
<!-- Generator: Adobe Illustrator 22.1.0, SVG Export Plug-In . SVG Version: 6.00 Build 0)  -->
<svg xmlns="http://www.w3.org/2000/svg" xmlns:xlink="http://www.w3.org/1999/xlink" version="1.1" id="Layer_1_1_" x="0px" y="0px" viewBox="0 0 64 64" style="enable-background:new 0 0 64 64;" xml:space="preserve" width="512" height="512">
<g>
	<g>
		<g>
			<path style="fill:#F0BC5E;" d="M32,43c-6.065,0-11-4.935-11-11s4.935-11,11-11s11,4.935,11,11S38.065,43,32,43z"/>
		</g>
	</g>
	<g>
		<g>
			<path style="fill:#F0BC5E;" d="M16,27C9.935,27,5,22.065,5,16S9.935,5,16,5s11,4.935,11,11S22.065,27,16,27z"/>
		</g>
	</g>
	<g>
		<g>
			<path style="fill:#F0BC5E;" d="M48,59c-6.065,0-11-4.935-11-11s4.935-11,11-11s11,4.935,11,11S54.065,59,48,59z"/>
		</g>
	</g>
	<g>
		<polygon style="fill:none;" points="46,39 46,39 46,39 46,39   "/>
	</g>
	<g>
		<path d="M32,29c0.551,0,1,0.448,1,1h2c0-1.302-0.839-2.402-2-2.816V25h-2v2.184c-1.161,0.414-2,1.514-2,2.816c0,1.654,1.346,3,3,3    c0.551,0,1,0.448,1,1s-0.449,1-1,1s-1-0.448-1-1h-2c0,1.302,0.839,2.402,2,2.816V39h2v-2.184c1.161-0.414,2-1.514,2-2.816    c0-1.654-1.346-3-3-3c-0.551,0-1-0.448-1-1S31.449,29,32,29z"/>
		<path d="M15,23h2v-2.184c1.161-0.414,2-1.514,2-2.816c0-1.654-1.346-3-3-3c-0.551,0-1-0.448-1-1s0.449-1,1-1s1,0.448,1,1h2    c0-1.302-0.839-2.402-2-2.816V9h-2v2.184c-1.161,0.414-2,1.514-2,2.816c0,1.654,1.346,3,3,3c0.551,0,1,0.448,1,1s-0.449,1-1,1    s-1-0.448-1-1h-2c0,1.302,0.839,2.402,2,2.816V23z"/>
		<path d="M48,45c0.551,0,1,0.448,1,1h2c0-1.302-0.839-2.402-2-2.816V41h-2v2.184c-1.161,0.414-2,1.514-2,2.816c0,1.654,1.346,3,3,3    c0.551,0,1,0.448,1,1s-0.449,1-1,1s-1-0.448-1-1h-2c0,1.302,0.839,2.402,2,2.816V55h2v-2.184c1.161-0.414,2-1.514,2-2.816    c0-1.654-1.346-3-3-3c-0.551,0-1-0.448-1-1S47.449,45,48,45z"/>
		<path d="M60,1H4C2.346,1,1,2.346,1,4v56c0,1.654,1.346,3,3,3h56c1.654,0,3-1.346,3-3V4C63,2.346,61.654,1,60,1z M61,60    c0,0.552-0.449,1-1,1H4c-0.551,0-1-0.448-1-1V4c0-0.552,0.449-1,1-1h56c0.551,0,1,0.448,1,1V60z"/>
		<path d="M31,13h8V5h-8V13z M33,7h4v4h-4V7z"/>
		<path d="M49,5h-8v8h8V5z M47,11h-4V7h4V11z"/>
		<path d="M51,13h8V5h-8V13z M53,7h4v4h-4V7z"/>
		<path d="M51,23h8v-8h-8V23z M53,17h4v4h-4V17z"/>
		<path d="M49,15h-8v8h8V15z M47,21h-4v-4h4V21z"/>
		<path d="M5,38h8v-8H5V38z M7,32h4v4H7V32z"/>
		<path d="M51,33h8v-8h-8V33z M53,27h4v4h-4V27z"/>
		<path d="M5,59h8v-8H5V59z M7,53h4v4H7V53z"/>
		<path d="M5,49h8v-8H5V49z M7,43h4v4H7V43z"/>
		<path d="M15,59h8v-8h-8V59z M17,53h4v4h-4V53z"/>
		<path d="M15,49h8v-8h-8V49z M17,43h4v4h-4V43z"/>
		<path d="M25,59h8v-8h-8V59z M27,53h4v4h-4V53z"/>
	</g>
</g>
</svg>
